<svg xmlns="http://www.w3.org/2000/svg" width="1200" height="720" viewBox="0 0 1200 720" role="img" aria-label="Restaurant placeholder">
  <defs>
    <linearGradient id="bg" x1="0" x2="1" y1="0" y2="1">
      <stop offset="0%" stop-color="#205072"/>
      <stop offset="100%" stop-color="#1f7a8c"/>
    </linearGradient>
  </defs>
  <rect width="1200" height="720" fill="url(#bg)"/>
  <circle cx="220" cy="170" r="140" fill="#ffffff" fill-opacity="0.08"/>
  <circle cx="1000" cy="560" r="190" fill="#ffffff" fill-opacity="0.07"/>
  <g fill="#ffffff" fill-opacity="0.9" transform="translate(420 250)">
    <path d="M180 24c-10 0-18 8-18 18v40h36V42c0-10-8-18-18-18zm-72 0c-10 0-18 8-18 18v40h36V42c0-10-8-18-18-18z"/>
    <rect x="72" y="90" width="144" height="30" rx="6"/>
    <rect x="128" y="128" width="32" height="120" rx="8"/>
    <rect x="248" y="42" width="24" height="206" rx="10"/>
    <rect x="292" y="42" width="24" height="206" rx="10"/>
  </g>
  <text x="600" y="610" text-anchor="middle" fill="#ffffff" fill-opacity="0.92" font-family="Poppins, Arial, sans-serif" font-size="44" font-weight="700">
    TableTap Restaurant
  </text>
</svg>
